<svg width="34" height="34" viewBox="0 0 34 34" fill="none" xmlns="http://www.w3.org/2000/svg">
<path d="M18.4297 2.79874C11.6008 2.79874 6.07324 7.96239 6.07324 14.3295C6.07324 14.6934 6.08725 15.0432 6.12923 15.3931C7.37467 14.5814 8.87199 14.1197 10.4953 14.1197C14.7493 14.1197 18.1918 17.3382 18.1918 21.3124C18.1918 22.9776 17.5761 24.517 16.5405 25.7344C17.1563 25.8184 17.786 25.8603 18.4297 25.8603L24.293 29.3447C25.2866 29.9465 26.532 29.1348 26.3921 27.9734L25.8463 23.5514C28.841 21.4523 30.7861 18.1078 30.7861 14.3295C30.7861 10.0335 28.2672 6.28318 24.5169 4.29607" stroke="white" stroke-width="1.5" stroke-linecap="round" stroke-linejoin="round"/>
<path d="M6.12927 15.393C7.37471 14.5814 8.87203 14.1197 10.4953 14.1197C14.7494 14.1197 18.1918 17.3381 18.1918 21.3124C18.1918 22.9776 17.5761 24.517 16.5406 25.7344C15.1552 27.4136 12.9582 28.4911 10.4953 28.4911L6.84294 30.6601C6.22722 31.038 5.44357 30.5202 5.52753 29.8065L5.87737 27.0498C4.00222 25.7484 2.79877 23.6633 2.79877 21.3124C2.79877 20.8925 2.84075 20.4867 2.91072 20.0949" stroke="white" stroke-width="1.5" stroke-linecap="round" stroke-linejoin="round"/>
</svg>
