<svg width="31" height="31" viewBox="0 0 31 31" fill="none" xmlns="http://www.w3.org/2000/svg">
<path d="M29.8925 21.2537C31.4072 17.4648 31.3667 13.2315 29.7799 9.47222C28.1931 5.71298 25.1879 2.73109 21.4164 1.17358C17.6449 -0.383933 13.4114 -0.391432 9.6344 1.15271C5.85742 2.69685 2.84168 5.66807 1.24153 9.42166C-0.358611 13.1753 -0.414077 17.4084 1.08717 21.2027C2.58842 24.9969 5.52528 28.0461 9.2605 29.6887C12.9957 31.3313 17.228 31.4347 21.039 29.9765C24.85 28.5184 27.9323 25.6162 29.6171 21.8999L27.1848 20.7972C25.7903 23.8733 23.239 26.2753 20.0847 27.4823C16.9303 28.6892 13.4272 28.6036 10.3355 27.244C7.24388 25.8845 4.81303 23.3606 3.57044 20.2201C2.32785 17.0796 2.37376 13.5758 3.69821 10.4689C5.02265 7.36207 7.51879 4.90278 10.645 3.62468C13.7712 2.34659 17.2753 2.3528 20.397 3.64196C23.5187 4.93112 26.0061 7.39924 27.3195 10.5108C28.633 13.6223 28.6665 17.1263 27.4128 20.2624L29.8925 21.2537Z" fill="#FFDAD9"/>
<path d="M29.8925 21.2537C28.6614 24.3333 26.4749 26.9368 23.6544 28.6816C20.8339 30.4265 17.5281 31.2206 14.2228 30.9473C10.9175 30.674 7.78698 29.3477 5.29134 27.1633C2.7957 24.979 1.06652 22.0517 0.357913 18.8117C-0.350697 15.5717 -0.00136824 12.1898 1.35456 9.16308C2.71049 6.13633 5.00152 3.62432 7.89097 1.9962C10.7804 0.36807 14.1159 -0.290315 17.4073 0.117795C20.6987 0.525905 23.7724 1.97899 26.1767 4.26351L24.362 6.1733C22.3664 4.27707 19.8151 3.07096 17.0831 2.73221C14.3512 2.39347 11.5826 2.93995 9.18423 4.29136C6.78588 5.64276 4.88425 7.72782 3.75878 10.2401C2.6333 12.7524 2.34335 15.5595 2.93152 18.2488C3.51969 20.9381 4.95497 23.3679 7.02644 25.181C9.09791 26.9941 11.6963 28.095 14.4399 28.3218C17.1834 28.5486 19.9273 27.8895 22.2684 26.4412C24.6096 24.993 26.4244 22.832 27.4463 20.2758L29.8925 21.2537Z" fill="#EA4E4B"/>
</svg>
